<svg width="32" height="32" viewBox="0 0 32 32" fill="none" xmlns="http://www.w3.org/2000/svg">
<path fill-rule="evenodd" clip-rule="evenodd" d="M5.74576 5H26.2542C26.6661 5 27 5.33389 27 5.74576V26.2542C27 26.6661 26.6661 27 26.2542 27H5.74576C5.33389 27 5 26.6661 5 26.2542V5.74576C5 5.33389 5.33389 5 5.74576 5ZM21.3453 23.1796C20.2329 23.1796 19.604 22.5994 19.1206 21.8101L17.2878 22.8748C17.9499 24.183 19.303 25.1811 21.3975 25.1811C23.5396 25.1811 25.1347 24.0687 25.1347 22.0383C25.1347 20.1548 24.0528 19.3171 22.1366 18.4954L21.5728 18.2539C20.6051 17.8348 20.1861 17.5609 20.1861 16.8844C20.1861 16.3369 20.6048 15.9179 21.2653 15.9179C21.9129 15.9179 22.3301 16.191 22.7168 16.8844L24.4729 15.7567C23.7301 14.4501 22.6992 13.951 21.2653 13.951C19.2512 13.951 17.9625 15.2387 17.9625 16.9301C17.9625 18.7663 19.0436 19.6348 20.671 20.3282L21.2349 20.5701C22.2634 21.02 22.8768 21.2939 22.8768 22.0672C22.8768 22.7126 22.2798 23.1796 21.3453 23.1796ZM12.6051 23.1655C11.8303 23.1655 11.508 22.6341 11.1537 22.0055L9.3179 23.1169C9.84971 24.2425 10.8954 25.1769 12.7011 25.1769C14.6996 25.1769 16.0688 24.1141 16.0688 21.7788V14.0798H13.8135V21.7484C13.8135 22.8756 13.3461 23.1655 12.6051 23.1655Z" fill="#757F99"/>
</svg>
